<svg width="54" height="40" viewBox="0 0 54 40" fill="none" xmlns="http://www.w3.org/2000/svg">
<path d="M49.5 0H4.125C3.03098 0 1.98177 0.375334 1.20818 1.04343C0.434597 1.71153 0 2.61767 0 3.5625V35.625C0 36.5698 0.434597 37.476 1.20818 38.1441C1.98177 38.8122 3.03098 39.1875 4.125 39.1875H49.5C50.594 39.1875 51.6432 38.8122 52.4168 38.1441C53.1904 37.476 53.625 36.5698 53.625 35.625V3.5625C53.625 2.61767 53.1904 1.71153 52.4168 1.04343C51.6432 0.375334 50.594 0 49.5 0ZM13.8342 29.7602C13.4472 30.0945 12.9223 30.2822 12.375 30.2822C11.8277 30.2822 11.3028 30.0945 10.9158 29.7602C10.5288 29.426 10.3114 28.9727 10.3114 28.5C10.3114 28.0273 10.5288 27.574 10.9158 27.2398L19.7716 19.5938L10.9158 11.9477C10.5288 11.6135 10.3114 11.1602 10.3114 10.6875C10.3114 10.2148 10.5288 9.7615 10.9158 9.42726C11.3028 9.09303 11.8277 8.90526 12.375 8.90526C12.9223 8.90526 13.4472 9.09303 13.8342 9.42726L24.1467 18.3335C24.3385 18.4989 24.4906 18.6954 24.5944 18.9116C24.6982 19.1279 24.7516 19.3597 24.7516 19.5938C24.7516 19.8278 24.6982 20.0596 24.5944 20.2759C24.4906 20.4921 24.3385 20.6886 24.1467 20.854L13.8342 29.7602ZM43.3125 30.2812H26.8125C26.2655 30.2812 25.7409 30.0936 25.3541 29.7595C24.9673 29.4255 24.75 28.9724 24.75 28.5C24.75 28.0276 24.9673 27.5745 25.3541 27.2405C25.7409 26.9064 26.2655 26.7188 26.8125 26.7188H43.3125C43.8595 26.7188 44.3841 26.9064 44.7709 27.2405C45.1577 27.5745 45.375 28.0276 45.375 28.5C45.375 28.9724 45.1577 29.4255 44.7709 29.7595C44.3841 30.0936 43.8595 30.2812 43.3125 30.2812Z" fill="#536DFE"/>
</svg>
