<svg width="503" height="425" viewBox="0 0 503 425" fill="none" xmlns="http://www.w3.org/2000/svg">
<g clip-path="url(#clip0_3406_4)">
<path d="M248.914 72.2505C257.341 72.2505 264.173 63.4341 264.173 52.5587C264.173 41.6832 257.341 32.8669 248.914 32.8669C240.487 32.8669 233.655 41.6832 233.655 52.5587C233.655 63.4341 240.487 72.2505 248.914 72.2505Z" fill="#E6E6E6"/>
<path d="M283.065 43.2343C282.635 41.4134 281.801 39.7946 280.667 38.5772C279.533 37.3599 278.147 36.5972 276.681 36.3829C276.647 36.3793 276.613 36.3793 276.579 36.3829C276.538 36.3664 276.495 36.354 276.453 36.3461C271.344 35.4906 265.663 37.5703 261.84 42.0986C260.421 43.7531 259.286 45.7729 258.508 48.028C257.799 46.7788 256.865 45.7713 255.787 45.0928C254.709 44.4142 253.518 44.0852 252.319 44.1341C250.772 44.266 249.295 45.0103 248.088 46.2654C246.881 47.5205 246.004 49.2254 245.575 51.1477C245.528 51.3825 245.541 51.6307 245.612 51.8553C245.683 52.0799 245.809 52.2688 245.97 52.394C246.429 52.9013 246.976 53.2603 247.564 53.4413C248.827 53.7879 250.102 54.105 251.376 54.3927C253.868 54.9532 256.373 55.4079 258.891 55.757C260.554 55.9857 262.221 56.1676 263.892 56.3028C267.343 56.583 270.812 56.6494 274.27 56.5093C275.984 56.4355 277.63 56.3618 279.196 55.3883C280.337 54.6641 281.312 53.5685 282.025 52.2097C282.696 50.9026 283.137 49.4216 283.316 47.8709C283.496 46.3202 283.41 44.7376 283.065 43.2343Z" fill="#E6E6E6"/>
<path d="M251.673 71.923C251.644 71.0979 251.537 70.2805 251.353 69.4893C250.921 67.6685 250.086 66.0502 248.951 64.8331C247.816 63.616 246.43 62.8531 244.964 62.6379C244.932 62.6342 244.899 62.6342 244.867 62.6379C244.824 62.6221 244.78 62.6098 244.735 62.601C241.908 62.154 239.038 62.5347 236.34 63.7146C232.191 65.5068 228.551 69.1205 226.796 74.283C226.087 73.0329 225.152 72.025 224.072 71.3464C222.993 70.6679 221.802 70.3393 220.601 70.389C219.055 70.5209 217.577 71.2652 216.371 72.5203C215.164 73.7755 214.286 75.4804 213.858 77.4026C213.813 77.6375 213.828 77.8845 213.898 78.1083C213.969 78.3322 214.093 78.5214 214.252 78.649C214.713 79.1549 215.259 79.5137 215.847 79.6962C217.115 80.0429 218.384 80.36 219.664 80.6476C222.156 81.2081 224.659 81.6629 227.174 82.012C232.282 82.7197 237.423 82.971 242.558 82.7642C244.267 82.6904 245.918 82.6167 247.484 81.6432C248.624 80.9188 249.597 79.8231 250.307 78.4646C251.309 76.5381 251.789 74.2382 251.673 71.923Z" fill="#E6E6E6"/>
<path d="M450.407 310.864C450.627 324.291 449.191 337.677 446.154 350.522C446.048 350.988 445.92 351.455 445.792 351.921H383.183C384.078 346.234 385.499 340.705 387.415 335.455C392.626 321.183 401.132 308.971 409.533 296.84C421.102 280.126 432.394 263.55 434.181 241.814C438.767 250.836 442.427 260.586 445.069 270.823C441.834 272.369 438.864 274.719 436.329 277.739C435.627 278.589 434.883 279.824 435.244 281.005C435.584 281.993 436.52 282.322 437.35 282.541C439.349 283.035 441.348 283.529 443.347 283.996C444.92 284.408 446.515 284.792 448.11 285.176C449.512 293.624 450.282 302.226 450.407 310.864Z" fill="#F2F2F2"/>
<path d="M503 301.972C492.962 309.849 486.582 322.034 481.372 335.674C476.838 337.008 472.652 339.846 469.228 343.907C468.505 344.758 467.761 345.993 468.144 347.173C468.463 348.161 469.42 348.491 470.249 348.71C472.227 349.204 474.247 349.698 476.225 350.165C476.034 350.741 475.842 351.345 475.651 351.921H409.299C412.311 346.679 415.646 341.76 419.273 337.211C420.06 336.195 420.868 335.235 421.697 334.247C430.156 324.382 439.868 316.473 450.407 310.864C467.011 301.907 485.168 298.837 503 301.972Z" fill="#F2F2F2"/>
<path d="M420.357 351.921H361.278C360.956 345.816 360.984 339.688 361.364 333.588C363.724 295.907 379.61 260.01 403.578 238.273C400.516 252.352 402.089 266.349 405.279 280.401C404.833 280.593 404.386 280.758 403.982 280.977C400.747 282.524 397.777 284.873 395.241 287.893C394.54 288.744 393.795 289.979 394.157 291.159C394.476 292.147 395.433 292.476 396.262 292.696C398.261 293.19 400.26 293.684 402.238 294.151C403.833 294.562 405.428 294.946 407.023 295.358C407.767 295.523 408.512 295.715 409.256 295.907C409.362 296.236 409.426 296.538 409.533 296.84C413.276 310.151 417.359 323.571 419.273 337.211C419.747 340.634 420.073 344.088 420.251 347.558C420.315 349.012 420.357 350.467 420.357 351.921Z" fill="#F2F2F2"/>
<path d="M98.3715 310.864C98.5907 324.291 97.155 337.677 94.1181 350.522C94.0117 350.988 93.8841 351.455 93.7565 351.921H31.1472C32.0422 346.234 33.4631 340.705 35.3794 335.455C40.5897 321.183 49.0964 308.971 57.4967 296.84C69.0658 280.126 80.3585 263.55 82.145 241.814C86.7307 250.836 90.3907 260.586 93.0335 270.823C89.798 272.369 86.8285 274.719 84.2929 277.739C83.5911 278.589 82.8466 279.824 83.2083 281.005C83.5485 281.993 84.4842 282.322 85.3137 282.541C87.3127 283.035 89.3118 283.529 91.3109 283.996C92.8846 284.408 94.4796 284.792 96.0746 285.176C97.4765 293.624 98.2457 302.226 98.3715 310.864Z" fill="#F2F2F2"/>
<path d="M150.964 301.972C140.926 309.849 134.546 322.034 129.336 335.674C124.802 337.008 120.616 339.846 117.192 343.907C116.469 344.758 115.725 345.993 116.108 347.173C116.427 348.161 117.384 348.491 118.213 348.71C120.191 349.204 122.211 349.698 124.189 350.165C123.998 350.741 123.806 351.345 123.615 351.921H57.2628C60.2749 346.679 63.6105 341.76 67.2369 337.211C68.0238 336.195 68.832 335.235 69.6614 334.247C78.1196 324.382 87.8317 316.473 98.3715 310.864C114.975 301.907 133.132 298.837 150.964 301.972Z" fill="#F2F2F2"/>
<path d="M68.3216 351.921H9.24252C8.91989 345.816 8.94836 339.688 9.32767 333.588C11.6882 295.907 27.5744 260.01 51.5421 238.273C48.4797 252.352 50.0534 266.349 53.2434 280.401C52.7969 280.593 52.3502 280.758 51.9462 280.977C48.7107 282.524 45.7412 284.873 43.2056 287.893C42.5037 288.744 41.7594 289.979 42.1209 291.159C42.4399 292.147 43.3969 292.476 44.2263 292.696C46.2254 293.19 48.2245 293.684 50.2022 294.151C51.7973 294.562 53.3923 294.946 54.9873 295.358C55.7315 295.523 56.476 295.715 57.2202 295.907C57.3265 296.236 57.3904 296.538 57.4967 296.84C61.2397 310.151 65.3229 323.571 67.2369 337.211C67.7107 340.634 68.0373 344.088 68.2152 347.558C68.279 349.012 68.3216 350.467 68.3216 351.921Z" fill="#F2F2F2"/>
<path d="M288.264 319.912L341.052 325.96L341.618 326.026V35.3483C341.429 35.1787 341.241 35.0091 341.052 34.8395C330.05 24.9088 318.149 16.7506 305.614 10.5463L302.917 58.5574L302.671 62.9529L300.002 110.566L299.179 125.213L288.361 318.216L288.264 319.912Z" fill="#E6E6E6"/>
<path d="M157.719 29.9351C157.342 30.2448 156.965 30.5546 156.587 30.8791V326.026L157.719 325.893L209.936 319.912L209.839 318.216L199.02 125.213L198.197 110.566L195.528 62.9529L195.283 58.5574L192.454 8.20839C180.255 13.6654 168.596 20.9579 157.719 29.9351Z" fill="#E6E6E6"/>
<path d="M156.587 30.8791C155.827 31.5133 155.067 32.1623 154.319 32.8187V330.053C154.319 337.479 157.73 343.704 162.291 345.289C163.036 345.55 163.805 345.681 164.577 345.68H334.194C334.964 345.682 335.731 345.55 336.474 345.289C338.17 344.683 339.706 343.495 340.92 341.853C343.237 338.658 344.503 334.428 344.452 330.053V37.9885C343.515 37.0962 342.572 36.2112 341.618 35.3483C341.429 35.1787 341.241 35.0091 341.052 34.8394V330.053C341.053 331.009 340.965 331.963 340.789 332.892C339.983 337.28 337.326 340.496 334.194 340.496H164.577C160.794 340.496 157.719 335.813 157.719 330.053V29.9351C157.342 30.2448 156.965 30.5545 156.587 30.8791Z" fill="#E6E6E6"/>
<path d="M342.752 58.5604H156.017V62.9551H342.752V58.5604Z" fill="#E6E6E6"/>
<path d="M285.561 2.50013C284.429 2.13875 283.298 1.7995 282.155 1.48238V120.817H285.561V2.50013Z" fill="#E6E6E6"/>
<path d="M216.616 0C215.479 0.272875 214.342 0.553127 213.21 0.855501V120.817H216.616V0Z" fill="#E6E6E6"/>
<path d="M119.406 337.988C119.406 340.51 119.78 343.009 120.509 345.349C120.79 346.256 121.124 347.134 121.51 347.974C122.008 349.07 122.586 350.102 123.235 351.057C124.671 353.168 126.44 354.86 128.422 356.018C130.405 357.177 132.557 357.776 134.734 357.775H358.362C362.427 357.775 366.326 355.691 369.2 351.982C372.075 348.273 373.69 343.242 373.69 337.996C373.69 332.75 372.075 327.719 369.2 324.009C366.326 320.3 362.427 318.216 358.362 318.216H134.734C130.671 318.221 126.776 320.306 123.902 324.012C121.029 327.719 119.412 332.745 119.406 337.988Z" fill="#E6E6E6"/>
<path d="M156.017 125.214L341.617 125.214V110.565L156.017 110.565V125.214Z" fill="#E6E6E6"/>
<path d="M256.763 114.227H240.871C240.871 112.09 241.529 110.041 242.7 108.53C243.87 107.019 245.459 106.17 247.114 106.17H250.52C251.34 106.17 252.152 106.379 252.909 106.784C253.667 107.188 254.355 107.782 254.935 108.53C255.514 109.278 255.974 110.166 256.288 111.144C256.602 112.122 256.763 113.169 256.763 114.227Z" fill="#E6E6E6"/>
<path d="M0 349.287C4.96465 356.878 10.3345 364.012 16.0702 370.637H477.02C482.756 364.012 488.126 356.878 493.09 349.287H0Z" fill="#3F3D56"/>
<path d="M226.703 277.889V353.527H267.764V277.889C267.765 277.345 267.631 276.816 267.381 276.377C267.131 275.939 266.778 275.616 266.376 275.456C266.186 275.375 265.987 275.335 265.787 275.338H228.686C228.426 275.337 228.168 275.403 227.928 275.531C227.688 275.658 227.469 275.846 227.285 276.083C227.101 276.32 226.954 276.602 226.855 276.912C226.755 277.222 226.703 277.554 226.703 277.889ZM242.728 303.879C242.738 302.388 243.205 300.963 244.026 299.913C244.847 298.864 245.956 298.275 247.111 298.275C248.266 298.275 249.375 298.864 250.196 299.913C251.017 300.963 251.483 302.388 251.494 303.879V312.655C251.488 314.15 251.024 315.582 250.202 316.636C249.381 317.691 248.27 318.283 247.111 318.283C245.952 318.283 244.841 317.691 244.019 316.636C243.198 315.582 242.734 314.15 242.728 312.655V303.879Z" fill="#2F2E41"/>
<path d="M226.578 351.108V358.402C226.578 358.78 226.695 359.142 226.901 359.41C227.108 359.678 227.388 359.83 227.68 359.833H266.787C267.08 359.831 267.361 359.68 267.568 359.411C267.774 359.143 267.89 358.78 267.89 358.402V351.108H226.578Z" fill="#3F3D56"/>
<path d="M162.108 163.931V302.035C162.109 303.795 162.651 305.483 163.616 306.727C164.58 307.972 165.888 308.671 167.251 308.673H325.839C327.203 308.671 328.51 307.972 329.475 306.727C330.439 305.483 330.981 303.795 330.982 302.035V163.931C330.979 162.173 330.436 160.488 329.472 159.245C328.508 158.002 327.202 157.303 325.839 157.301H167.251C165.889 157.303 164.582 158.002 163.618 159.245C162.654 160.488 162.111 162.173 162.108 163.931Z" fill="#3F3D56"/>
<path d="M165.828 165.65V300.332C165.83 301.272 166.12 302.173 166.635 302.838C167.15 303.503 167.849 303.877 168.577 303.879H324.519C325.248 303.877 325.946 303.503 326.461 302.838C326.976 302.173 327.266 301.272 327.268 300.332V165.65C327.268 164.708 326.978 163.805 326.463 163.139C325.948 162.472 325.248 162.097 324.519 162.095H168.577C167.848 162.097 167.149 162.472 166.633 163.139C166.118 163.805 165.828 164.708 165.828 165.65Z" fill="#61DCFB"/>
<path d="M197.626 361.551C197.785 361.808 197.986 362.015 198.216 362.157C198.446 362.299 198.697 362.372 198.952 362.37H291.727C291.981 362.37 292.231 362.296 292.46 362.155C292.689 362.014 292.891 361.809 293.051 361.555C293.211 361.3 293.324 361.003 293.384 360.685C293.444 360.367 293.448 360.035 293.396 359.715L291.956 350.887C291.896 350.527 291.767 350.192 291.582 349.913C291.396 349.633 291.159 349.418 290.893 349.287C290.7 349.189 290.494 349.139 290.287 349.139H200.386C200.179 349.139 199.973 349.189 199.78 349.287C199.514 349.418 199.277 349.633 199.091 349.913C198.906 350.192 198.777 350.527 198.717 350.887L197.277 359.715C197.226 360.035 197.231 360.366 197.291 360.684C197.351 361.002 197.466 361.298 197.626 361.551Z" fill="#2F2E41"/>
<path d="M287.049 352.942H289.349C289.503 352.942 289.628 352.78 289.628 352.582V351.089C289.628 350.89 289.503 350.729 289.349 350.729H287.049C286.895 350.729 286.77 350.89 286.77 351.089V352.582C286.77 352.78 286.895 352.942 287.049 352.942Z" fill="#3F3D56"/>
<path d="M281.335 352.942H283.634C283.788 352.942 283.913 352.78 283.913 352.582V351.089C283.913 350.89 283.788 350.729 283.634 350.729H281.335C281.18 350.729 281.056 350.89 281.056 351.089V352.582C281.056 352.78 281.18 352.942 281.335 352.942Z" fill="#3F3D56"/>
<path d="M275.62 352.942H277.919C278.073 352.942 278.198 352.78 278.198 352.582V351.089C278.198 350.89 278.073 350.729 277.919 350.729H275.62C275.466 350.729 275.341 350.89 275.341 351.089V352.582C275.341 352.78 275.466 352.942 275.62 352.942Z" fill="#3F3D56"/>
<path d="M269.905 352.942H272.204C272.358 352.942 272.483 352.78 272.483 352.582V351.089C272.483 350.89 272.358 350.729 272.204 350.729H269.905C269.751 350.729 269.626 350.89 269.626 351.089V352.582C269.626 352.78 269.751 352.942 269.905 352.942Z" fill="#3F3D56"/>
<path d="M264.19 352.942H266.489C266.643 352.942 266.768 352.78 266.768 352.582V351.089C266.768 350.89 266.643 350.729 266.489 350.729H264.19C264.036 350.729 263.911 350.89 263.911 351.089V352.582C263.911 352.78 264.036 352.942 264.19 352.942Z" fill="#3F3D56"/>
<path d="M258.475 352.942H260.774C260.929 352.942 261.053 352.78 261.053 352.582V351.089C261.053 350.89 260.929 350.729 260.774 350.729H258.475C258.321 350.729 258.196 350.89 258.196 351.089V352.582C258.196 352.78 258.321 352.942 258.475 352.942Z" fill="#3F3D56"/>
<path d="M252.76 352.942H255.06C255.214 352.942 255.339 352.78 255.339 352.582V351.089C255.339 350.89 255.214 350.729 255.06 350.729H252.76C252.606 350.729 252.481 350.89 252.481 351.089V352.582C252.481 352.78 252.606 352.942 252.76 352.942Z" fill="#3F3D56"/>
<path d="M247.045 352.942H249.345C249.499 352.942 249.624 352.78 249.624 352.582V351.089C249.624 350.89 249.499 350.729 249.345 350.729H247.045C246.891 350.729 246.766 350.89 246.766 351.089V352.582C246.766 352.78 246.891 352.942 247.045 352.942Z" fill="#3F3D56"/>
<path d="M241.33 352.942H243.63C243.784 352.942 243.909 352.78 243.909 352.582V351.089C243.909 350.89 243.784 350.729 243.63 350.729H241.33C241.176 350.729 241.052 350.89 241.052 351.089V352.582C241.052 352.78 241.176 352.942 241.33 352.942Z" fill="#3F3D56"/>
<path d="M235.616 352.942H237.915C238.069 352.942 238.194 352.78 238.194 352.582V351.089C238.194 350.89 238.069 350.729 237.915 350.729H235.616C235.462 350.729 235.337 350.89 235.337 351.089V352.582C235.337 352.78 235.462 352.942 235.616 352.942Z" fill="#3F3D56"/>
<path d="M229.901 352.942H232.2C232.354 352.942 232.479 352.78 232.479 352.582V351.089C232.479 350.89 232.354 350.729 232.2 350.729H229.901C229.747 350.729 229.622 350.89 229.622 351.089V352.582C229.622 352.78 229.747 352.942 229.901 352.942Z" fill="#3F3D56"/>
<path d="M224.186 352.942H226.485C226.639 352.942 226.764 352.78 226.764 352.582V351.089C226.764 350.89 226.639 350.729 226.485 350.729H224.186C224.032 350.729 223.907 350.89 223.907 351.089V352.582C223.907 352.78 224.032 352.942 224.186 352.942Z" fill="#3F3D56"/>
<path d="M218.471 352.942H220.77C220.925 352.942 221.049 352.78 221.049 352.582V351.089C221.049 350.89 220.925 350.729 220.77 350.729H218.471C218.317 350.729 218.192 350.89 218.192 351.089V352.582C218.192 352.78 218.317 352.942 218.471 352.942Z" fill="#3F3D56"/>
<path d="M212.756 352.942H215.056C215.21 352.942 215.335 352.78 215.335 352.582V351.089C215.335 350.89 215.21 350.729 215.056 350.729H212.756C212.602 350.729 212.477 350.89 212.477 351.089V352.582C212.477 352.78 212.602 352.942 212.756 352.942Z" fill="#3F3D56"/>
<path d="M207.041 352.942H209.341C209.495 352.942 209.62 352.78 209.62 352.582V351.089C209.62 350.89 209.495 350.729 209.341 350.729H207.041C206.887 350.729 206.762 350.89 206.762 351.089V352.582C206.762 352.78 206.887 352.942 207.041 352.942Z" fill="#3F3D56"/>
<path d="M201.326 352.942H203.626C203.78 352.942 203.905 352.78 203.905 352.582V351.089C203.905 350.89 203.78 350.729 203.626 350.729H201.326C201.172 350.729 201.047 350.89 201.047 351.089V352.582C201.047 352.78 201.172 352.942 201.326 352.942Z" fill="#3F3D56"/>
<path d="M287.117 356.629H289.416C289.571 356.629 289.695 356.468 289.695 356.269V354.777C289.695 354.578 289.571 354.417 289.416 354.417H287.117C286.963 354.417 286.838 354.578 286.838 354.777V356.269C286.838 356.468 286.963 356.629 287.117 356.629Z" fill="#3F3D56"/>
<path d="M281.402 356.629H283.701C283.856 356.629 283.98 356.468 283.98 356.269V354.777C283.98 354.578 283.856 354.417 283.701 354.417H281.402C281.248 354.417 281.123 354.578 281.123 354.777V356.269C281.123 356.468 281.248 356.629 281.402 356.629Z" fill="#3F3D56"/>
<path d="M275.687 356.629H277.987C278.141 356.629 278.266 356.468 278.266 356.269V354.777C278.266 354.578 278.141 354.417 277.987 354.417H275.687C275.533 354.417 275.408 354.578 275.408 354.777V356.269C275.408 356.468 275.533 356.629 275.687 356.629Z" fill="#3F3D56"/>
<path d="M269.972 356.629H272.272C272.426 356.629 272.551 356.468 272.551 356.269V354.777C272.551 354.578 272.426 354.417 272.272 354.417H269.972C269.818 354.417 269.693 354.578 269.693 354.777V356.269C269.693 356.468 269.818 356.629 269.972 356.629Z" fill="#3F3D56"/>
<path d="M264.257 356.629H266.557C266.711 356.629 266.836 356.468 266.836 356.269V354.777C266.836 354.578 266.711 354.417 266.557 354.417H264.257C264.103 354.417 263.979 354.578 263.979 354.777V356.269C263.979 356.468 264.103 356.629 264.257 356.629Z" fill="#3F3D56"/>
<path d="M258.543 356.629H260.842C260.996 356.629 261.121 356.468 261.121 356.269V354.777C261.121 354.578 260.996 354.417 260.842 354.417H258.543C258.389 354.417 258.264 354.578 258.264 354.777V356.269C258.264 356.468 258.389 356.629 258.543 356.629Z" fill="#3F3D56"/>
<path d="M252.828 356.629H255.127C255.281 356.629 255.406 356.468 255.406 356.269V354.777C255.406 354.578 255.281 354.417 255.127 354.417H252.828C252.674 354.417 252.549 354.578 252.549 354.777V356.269C252.549 356.468 252.674 356.629 252.828 356.629Z" fill="#3F3D56"/>
<path d="M247.113 356.629H249.412C249.566 356.629 249.691 356.468 249.691 356.269V354.777C249.691 354.578 249.566 354.417 249.412 354.417H247.113C246.959 354.417 246.834 354.578 246.834 354.777V356.269C246.834 356.468 246.959 356.629 247.113 356.629Z" fill="#3F3D56"/>
<path d="M241.398 356.629H243.697C243.852 356.629 243.976 356.468 243.976 356.269V354.777C243.976 354.578 243.852 354.417 243.697 354.417H241.398C241.244 354.417 241.119 354.578 241.119 354.777V356.269C241.119 356.468 241.244 356.629 241.398 356.629Z" fill="#3F3D56"/>
<path d="M235.683 356.629H237.983C238.137 356.629 238.262 356.468 238.262 356.269V354.777C238.262 354.578 238.137 354.417 237.983 354.417H235.683C235.529 354.417 235.404 354.578 235.404 354.777V356.269C235.404 356.468 235.529 356.629 235.683 356.629Z" fill="#3F3D56"/>
<path d="M229.968 356.629H232.268C232.422 356.629 232.547 356.468 232.547 356.269V354.777C232.547 354.578 232.422 354.417 232.268 354.417H229.968C229.814 354.417 229.689 354.578 229.689 354.777V356.269C229.689 356.468 229.814 356.629 229.968 356.629Z" fill="#3F3D56"/>
<path d="M224.253 356.629H226.553C226.707 356.629 226.832 356.468 226.832 356.269V354.777C226.832 354.578 226.707 354.417 226.553 354.417H224.253C224.099 354.417 223.974 354.578 223.974 354.777V356.269C223.974 356.468 224.099 356.629 224.253 356.629Z" fill="#3F3D56"/>
<path d="M218.538 356.629H220.838C220.992 356.629 221.117 356.468 221.117 356.269V354.777C221.117 354.578 220.992 354.417 220.838 354.417H218.538C218.384 354.417 218.26 354.578 218.26 354.777V356.269C218.26 356.468 218.384 356.629 218.538 356.629Z" fill="#3F3D56"/>
<path d="M212.824 356.629H215.123C215.277 356.629 215.402 356.468 215.402 356.269V354.777C215.402 354.578 215.277 354.417 215.123 354.417H212.824C212.67 354.417 212.545 354.578 212.545 354.777V356.269C212.545 356.468 212.67 356.629 212.824 356.629Z" fill="#3F3D56"/>
<path d="M207.109 356.629H209.408C209.562 356.629 209.687 356.468 209.687 356.269V354.777C209.687 354.578 209.562 354.417 209.408 354.417H207.109C206.955 354.417 206.83 354.578 206.83 354.777V356.269C206.83 356.468 206.955 356.629 207.109 356.629Z" fill="#3F3D56"/>
<path d="M201.394 356.629H203.693C203.847 356.629 203.972 356.468 203.972 356.269V354.777C203.972 354.578 203.847 354.417 203.693 354.417H201.394C201.24 354.417 201.115 354.578 201.115 354.777V356.269C201.115 356.468 201.24 356.629 201.394 356.629Z" fill="#3F3D56"/>
<path d="M239.684 361.054H261.985C262.139 361.054 262.264 360.893 262.264 360.694V359.202C262.264 359.003 262.139 358.842 261.985 358.842H239.684C239.529 358.842 239.405 359.003 239.405 359.202V360.694C239.405 360.893 239.529 361.054 239.684 361.054Z" fill="#3F3D56"/>
<path d="M176.413 180.648H322.327C322.479 180.644 322.623 180.563 322.729 180.423C322.836 180.283 322.895 180.095 322.895 179.899C322.895 179.703 322.836 179.515 322.729 179.375C322.623 179.235 322.479 179.155 322.327 179.15H176.413C176.262 179.155 176.117 179.235 176.011 179.375C175.905 179.515 175.846 179.703 175.846 179.899C175.846 180.095 175.905 180.283 176.011 180.423C176.117 180.563 176.262 180.644 176.413 180.648Z" fill="#3F3D56"/>
<path d="M312.395 175.327C314.273 175.327 315.795 173.318 315.795 170.841C315.795 168.363 314.273 166.354 312.395 166.354C310.517 166.354 308.994 168.363 308.994 170.841C308.994 173.318 310.517 175.327 312.395 175.327Z" fill="#3F3D56"/>
<path d="M300.647 175.327C302.525 175.327 304.048 173.318 304.048 170.841C304.048 168.363 302.525 166.354 300.647 166.354C298.769 166.354 297.247 168.363 297.247 170.841C297.247 173.318 298.769 175.327 300.647 175.327Z" fill="#3F3D56"/>
<path d="M288.9 175.327C290.778 175.327 292.3 173.318 292.3 170.841C292.3 168.363 290.778 166.354 288.9 166.354C287.022 166.354 285.499 168.363 285.499 170.841C285.499 173.318 287.022 175.327 288.9 175.327Z" fill="#3F3D56"/>
<path d="M182.864 168.282C182.864 168.388 182.88 168.494 182.911 168.592C182.942 168.69 182.988 168.779 183.046 168.855C183.103 168.93 183.172 168.99 183.248 169.031C183.324 169.072 183.405 169.093 183.487 169.094H191.831C191.996 169.089 192.153 169.001 192.268 168.848C192.383 168.696 192.448 168.492 192.448 168.279C192.448 168.066 192.383 167.861 192.268 167.709C192.153 167.557 191.996 167.469 191.831 167.464H183.487C183.321 167.466 183.162 167.554 183.045 167.707C182.928 167.861 182.863 168.067 182.864 168.282Z" fill="#3F3D56"/>
<path d="M182.864 171.343C182.864 171.449 182.88 171.554 182.911 171.652C182.942 171.751 182.988 171.84 183.046 171.915C183.103 171.991 183.172 172.05 183.248 172.092C183.324 172.133 183.405 172.154 183.487 172.154H191.831C191.996 172.15 192.153 172.062 192.269 171.909C192.384 171.757 192.449 171.552 192.449 171.339C192.449 171.126 192.384 170.922 192.269 170.769C192.153 170.617 191.996 170.529 191.831 170.524H183.487C183.321 170.527 183.162 170.615 183.045 170.768C182.928 170.921 182.863 171.128 182.864 171.343Z" fill="#3F3D56"/>
<path d="M182.864 174.396C182.863 174.611 182.928 174.818 183.045 174.971C183.162 175.125 183.321 175.212 183.487 175.215H191.831C191.996 175.21 192.153 175.122 192.268 174.97C192.383 174.817 192.448 174.613 192.448 174.4C192.448 174.187 192.383 173.983 192.268 173.83C192.153 173.678 191.996 173.59 191.831 173.585H183.487C183.405 173.586 183.324 173.607 183.248 173.648C183.172 173.689 183.103 173.749 183.046 173.824C182.988 173.9 182.942 173.989 182.911 174.087C182.88 174.185 182.864 174.29 182.864 174.396Z" fill="#3F3D56"/>
<path d="M185.443 198.05H182.445C181.536 198.05 180.799 199.001 180.799 200.174C180.799 201.347 181.536 202.298 182.445 202.298H185.443C186.352 202.298 187.089 201.347 187.089 200.174C187.089 199.001 186.352 198.05 185.443 198.05Z" fill="#E6E6E6"/>
<path d="M219.732 198.05H216.734C215.825 198.05 215.088 199.001 215.088 200.174C215.088 201.347 215.825 202.298 216.734 202.298H219.732C220.641 202.298 221.378 201.347 221.378 200.174C221.378 199.001 220.641 198.05 219.732 198.05Z" fill="#E6E6E6"/>
<path d="M229.447 198.05H226.449C225.54 198.05 224.803 199.001 224.803 200.174C224.803 201.347 225.54 202.298 226.449 202.298H229.447C230.356 202.298 231.093 201.347 231.093 200.174C231.093 199.001 230.356 198.05 229.447 198.05Z" fill="#E6E6E6"/>
<path d="M210.405 197.696H191.772C190.863 197.696 190.126 198.647 190.126 199.82C190.126 200.993 190.863 201.944 191.772 201.944H210.405C211.314 201.944 212.051 200.993 212.051 199.82C212.051 198.647 211.314 197.696 210.405 197.696Z" fill="#E6E6E6"/>
<path d="M256.124 197.696H237.491C236.582 197.696 235.845 198.647 235.845 199.82C235.845 200.993 236.582 201.944 237.491 201.944H256.124C257.033 201.944 257.77 200.993 257.77 199.82C257.77 198.647 257.033 197.696 256.124 197.696Z" fill="#E6E6E6"/>
<path d="M194.587 207.638H191.589C190.68 207.638 189.943 208.589 189.943 209.762C189.943 210.935 190.68 211.886 191.589 211.886H194.587C195.496 211.886 196.233 210.935 196.233 209.762C196.233 208.589 195.496 207.638 194.587 207.638Z" fill="#E6E6E6"/>
<path d="M228.876 207.638H225.878C224.969 207.638 224.232 208.589 224.232 209.762C224.232 210.935 224.969 211.886 225.878 211.886H228.876C229.785 211.886 230.522 210.935 230.522 209.762C230.522 208.589 229.785 207.638 228.876 207.638Z" fill="#E6E6E6"/>
<path d="M238.591 207.638H235.593C234.684 207.638 233.947 208.589 233.947 209.762C233.947 210.935 234.684 211.886 235.593 211.886H238.591C239.5 211.886 240.237 210.935 240.237 209.762C240.237 208.589 239.5 207.638 238.591 207.638Z" fill="#E6E6E6"/>
<path d="M219.549 207.284H200.915C200.006 207.284 199.27 208.235 199.27 209.408C199.27 210.581 200.006 211.532 200.915 211.532H219.549C220.458 211.532 221.195 210.581 221.195 209.408C221.195 208.235 220.458 207.284 219.549 207.284Z" fill="#E6E6E6"/>
<path d="M265.268 207.284H246.634C245.725 207.284 244.989 208.235 244.989 209.408C244.989 210.581 245.725 211.532 246.634 211.532H265.268C266.177 211.532 266.914 210.581 266.914 209.408C266.914 208.235 266.177 207.284 265.268 207.284Z" fill="#E6E6E6"/>
<path d="M203.731 217.225H200.732C199.823 217.225 199.087 218.176 199.087 219.349C199.087 220.522 199.823 221.473 200.732 221.473H203.731C204.64 221.473 205.376 220.522 205.376 219.349C205.376 218.176 204.64 217.225 203.731 217.225Z" fill="#E6E6E6"/>
<path d="M238.02 217.225H235.022C234.113 217.225 233.376 218.176 233.376 219.349C233.376 220.522 234.113 221.473 235.022 221.473H238.02C238.929 221.473 239.666 220.522 239.666 219.349C239.666 218.176 238.929 217.225 238.02 217.225Z" fill="#E6E6E6"/>
<path d="M247.735 217.225H244.737C243.828 217.225 243.091 218.176 243.091 219.349C243.091 220.522 243.828 221.473 244.737 221.473H247.735C248.644 221.473 249.381 220.522 249.381 219.349C249.381 218.176 248.644 217.225 247.735 217.225Z" fill="#E6E6E6"/>
<path d="M228.693 216.871H210.059C209.15 216.871 208.413 217.822 208.413 218.995C208.413 220.168 209.15 221.119 210.059 221.119H228.693C229.602 221.119 230.339 220.168 230.339 218.995C230.339 217.822 229.602 216.871 228.693 216.871Z" fill="#E6E6E6"/>
<path d="M274.412 216.871H255.778C254.869 216.871 254.132 217.822 254.132 218.995C254.132 220.168 254.869 221.119 255.778 221.119H274.412C275.321 221.119 276.058 220.168 276.058 218.995C276.058 217.822 275.321 216.871 274.412 216.871Z" fill="#E6E6E6"/>
<path d="M212.874 226.813H209.876C208.967 226.813 208.23 227.764 208.23 228.937C208.23 230.11 208.967 231.061 209.876 231.061H212.874C213.783 231.061 214.52 230.11 214.52 228.937C214.52 227.764 213.783 226.813 212.874 226.813Z" fill="#E6E6E6"/>
<path d="M247.164 226.813H244.166C243.257 226.813 242.52 227.764 242.52 228.937C242.52 230.11 243.257 231.061 244.166 231.061H247.164C248.073 231.061 248.809 230.11 248.809 228.937C248.809 227.764 248.073 226.813 247.164 226.813Z" fill="#E6E6E6"/>
<path d="M256.879 226.813H253.881C252.972 226.813 252.235 227.764 252.235 228.937C252.235 230.11 252.972 231.061 253.881 231.061H256.879C257.788 231.061 258.525 230.11 258.525 228.937C258.525 227.764 257.788 226.813 256.879 226.813Z" fill="#E6E6E6"/>
<path d="M237.837 226.459H219.203C218.294 226.459 217.557 227.41 217.557 228.583C217.557 229.756 218.294 230.707 219.203 230.707H237.837C238.746 230.707 239.483 229.756 239.483 228.583C239.483 227.41 238.746 226.459 237.837 226.459Z" fill="#E6E6E6"/>
<path d="M219.732 264.937H216.734C215.825 264.937 215.088 265.888 215.088 267.061C215.088 268.234 215.825 269.185 216.734 269.185H219.732C220.641 269.185 221.378 268.234 221.378 267.061C221.378 265.888 220.641 264.937 219.732 264.937Z" fill="#E6E6E6"/>
<path d="M229.447 264.937H226.449C225.54 264.937 224.803 265.888 224.803 267.061C224.803 268.234 225.54 269.185 226.449 269.185H229.447C230.356 269.185 231.093 268.234 231.093 267.061C231.093 265.888 230.356 264.937 229.447 264.937Z" fill="#E6E6E6"/>
<path d="M256.124 265.291H237.491C236.582 265.291 235.845 266.242 235.845 267.415C235.845 268.588 236.582 269.539 237.491 269.539H256.124C257.033 269.539 257.77 268.588 257.77 267.415C257.77 266.242 257.033 265.291 256.124 265.291Z" fill="#E6E6E6"/>
<path d="M185.443 264.937H182.445C181.536 264.937 180.799 265.888 180.799 267.061C180.799 268.234 181.536 269.185 182.445 269.185H185.443C186.352 269.185 187.089 268.234 187.089 267.061C187.089 265.888 186.352 264.937 185.443 264.937Z" fill="#E6E6E6"/>
<path d="M210.405 265.291H191.772C190.863 265.291 190.126 266.242 190.126 267.415C190.126 268.588 190.863 269.539 191.772 269.539H210.405C211.314 269.539 212.051 268.588 212.051 267.415C212.051 266.242 211.314 265.291 210.405 265.291Z" fill="#E6E6E6"/>
<path d="M194.587 255.349H191.589C190.68 255.349 189.943 256.3 189.943 257.473C189.943 258.646 190.68 259.597 191.589 259.597H194.587C195.496 259.597 196.233 258.646 196.233 257.473C196.233 256.3 195.496 255.349 194.587 255.349Z" fill="#E6E6E6"/>
<path d="M228.876 255.349H225.878C224.969 255.349 224.232 256.3 224.232 257.473C224.232 258.646 224.969 259.597 225.878 259.597H228.876C229.785 259.597 230.522 258.646 230.522 257.473C230.522 256.3 229.785 255.349 228.876 255.349Z" fill="#E6E6E6"/>
<path d="M238.591 255.349H235.593C234.684 255.349 233.947 256.3 233.947 257.473C233.947 258.646 234.684 259.597 235.593 259.597H238.591C239.5 259.597 240.237 258.646 240.237 257.473C240.237 256.3 239.5 255.349 238.591 255.349Z" fill="#E6E6E6"/>
<path d="M219.549 255.703H200.915C200.006 255.703 199.27 256.654 199.27 257.827C199.27 259 200.006 259.951 200.915 259.951H219.549C220.458 259.951 221.195 259 221.195 257.827C221.195 256.654 220.458 255.703 219.549 255.703Z" fill="#E6E6E6"/>
<path d="M203.731 245.762H200.732C199.823 245.762 199.087 246.713 199.087 247.886C199.087 249.059 199.823 250.01 200.732 250.01H203.731C204.64 250.01 205.376 249.059 205.376 247.886C205.376 246.713 204.64 245.762 203.731 245.762Z" fill="#E6E6E6"/>
<path d="M238.02 245.762H235.022C234.113 245.762 233.376 246.713 233.376 247.886C233.376 249.059 234.113 250.01 235.022 250.01H238.02C238.929 250.01 239.666 249.059 239.666 247.886C239.666 246.713 238.929 245.762 238.02 245.762Z" fill="#E6E6E6"/>
<path d="M247.735 245.762H244.737C243.828 245.762 243.091 246.713 243.091 247.886C243.091 249.059 243.828 250.01 244.737 250.01H247.735C248.644 250.01 249.381 249.059 249.381 247.886C249.381 246.713 248.644 245.762 247.735 245.762Z" fill="#E6E6E6"/>
<path d="M228.693 246.116H210.059C209.15 246.116 208.413 247.067 208.413 248.24C208.413 249.413 209.15 250.364 210.059 250.364H228.693C229.602 250.364 230.339 249.413 230.339 248.24C230.339 247.067 229.602 246.116 228.693 246.116Z" fill="#E6E6E6"/>
<path d="M212.874 236.174H209.876C208.967 236.174 208.23 237.125 208.23 238.298C208.23 239.471 208.967 240.422 209.876 240.422H212.874C213.783 240.422 214.52 239.471 214.52 238.298C214.52 237.125 213.783 236.174 212.874 236.174Z" fill="#E6E6E6"/>
<path d="M247.164 236.174H244.166C243.257 236.174 242.52 237.125 242.52 238.298C242.52 239.471 243.257 240.422 244.166 240.422H247.164C248.073 240.422 248.809 239.471 248.809 238.298C248.809 237.125 248.073 236.174 247.164 236.174Z" fill="#E6E6E6"/>
<path d="M256.879 236.174H253.881C252.972 236.174 252.235 237.125 252.235 238.298C252.235 239.471 252.972 240.422 253.881 240.422H256.879C257.788 240.422 258.525 239.471 258.525 238.298C258.525 237.125 257.788 236.174 256.879 236.174Z" fill="#E6E6E6"/>
<path d="M237.837 236.528H219.203C218.294 236.528 217.557 237.479 217.557 238.652C217.557 239.825 218.294 240.776 219.203 240.776H237.837C238.746 240.776 239.483 239.825 239.483 238.652C239.483 237.479 238.746 236.528 237.837 236.528Z" fill="#E6E6E6"/>
<path d="M199.97 402.639C199.844 402.72 199.719 402.801 199.593 402.875C198.799 403.384 197.998 403.885 197.193 404.38C194.781 405.862 192.339 407.271 189.866 408.605C183.36 412.117 176.685 415.081 169.881 417.477C168.738 408.281 167.63 386.591 166.567 370.639C166.367 367.637 166.167 364.842 165.967 362.372C165.777 359.128 165.416 355.905 164.887 352.725C164.835 352.476 164.76 352.236 164.664 352.01C164.772 353.286 164.887 357.091 164.995 362.372C165.052 364.842 165.104 367.637 165.161 370.639C165.429 385.994 165.709 406.887 165.989 418.783C165.195 419.034 164.395 419.284 163.595 419.52C163.092 419.675 162.583 419.823 162.075 419.963C161.458 420.14 160.84 420.317 160.223 420.479C159.577 420.656 158.932 420.826 158.286 420.988C147.733 423.663 137.003 425.007 126.248 425C125.534 425 124.825 424.993 124.111 424.985C123.894 424.985 123.677 424.978 123.454 424.97C122.825 424.956 122.174 424.941 121.511 424.919C108.801 424.465 96.1752 422.117 83.884 417.92L84.3811 370.639L84.4669 362.372L84.5012 359.237C84.2181 360.246 84.0487 361.301 83.9982 362.372C83.7982 364.385 83.5925 367.239 83.3868 370.639C82.6038 383.737 81.798 404.866 80.9636 416.887C71.0826 413.259 63.8591 409.948 54.8296 404.121C54.4809 403.9 54.1266 403.671 53.778 403.443C53.8409 402.875 53.9095 402.307 53.9723 401.724C54.9953 392.55 53.7895 380.61 54.921 370.639C55.7839 362.947 56.6755 355.557 57.5727 349.288C58.6585 341.744 59.7614 335.814 60.853 332.931C62.1103 329.604 63.3676 326.33 64.5848 323.196C65.1106 321.846 65.6269 320.521 66.1336 319.221C66.4079 318.52 66.6822 317.827 66.9508 317.148C68.1738 314.058 69.3282 311.204 70.3854 308.674C71.1284 306.897 71.8142 305.289 72.4428 303.881C73.18 302.221 73.8315 300.849 74.3687 299.81C78.3365 292.048 84.2404 286.269 91.1018 283.43L91.2733 283.371L91.439 283.459L91.6276 283.57L102.52 278.429L107.383 263.318L132.363 261.334L136.398 265.295L138.461 267.323L140.661 269.484L144.707 273.459L145.856 273.916L147.565 274.594L159.252 279.226L159.372 279.16L159.543 279.219C165.787 281.798 171.252 286.825 175.179 293.6C175.568 294.249 175.928 294.92 176.276 295.598C177.225 297.413 178.505 300.282 180.014 303.881C180.637 305.363 181.294 306.971 181.985 308.674C182.403 309.699 186.003 324.199 189.506 339.008C192.781 352.873 195.97 367.01 196.387 370.639C196.461 371.31 196.541 371.989 196.615 372.66C197.09 376.856 197.558 381.082 198.01 385.205C198.679 391.318 199.33 397.218 199.953 402.491C199.959 402.543 199.964 402.587 199.97 402.639Z" fill="#3F3D56"/>
<path opacity="0.2" d="M173.498 349.254L168.642 325.07L164.354 345.938L173.498 349.254Z" fill="black"/>
<path d="M9.04622 348.974C9.29801 349.92 9.77562 350.739 10.4105 351.313C11.0453 351.886 11.8048 352.186 12.5798 352.168L27.7195 351.665C28.5002 351.646 29.255 351.3 29.8711 350.681C30.4871 350.062 30.9314 349.203 31.1375 348.231L33.2799 318.666C34.04 319.111 34.8675 319.33 35.7018 319.309C37.1657 319.261 38.5551 318.465 39.5642 317.096C40.5733 315.727 41.1196 313.896 41.0829 312.007C41.0461 310.118 40.4294 308.325 39.3683 307.022C38.3072 305.72 36.8886 305.015 35.4247 305.063C35.0913 305.061 34.7586 305.106 34.4325 305.196C34.0779 304.701 33.6468 304.307 33.1671 304.04C32.6873 303.773 32.1696 303.638 31.6471 303.645L8.35869 304.421C8.1655 304.43 7.9733 304.461 7.78424 304.513C7.27352 304.636 6.78914 304.898 6.36366 305.283C5.93819 305.668 5.58151 306.166 5.31764 306.743C5.05377 307.321 4.88883 307.964 4.83392 308.631C4.779 309.298 4.83539 309.972 4.99929 310.608L9.04622 348.974ZM33.7193 316.659L35.2438 309.614C35.4172 308.8 35.4212 307.942 35.2554 307.125C35.3294 307.125 35.3947 307.08 35.4686 307.079C36.514 307.051 37.5252 307.56 38.2806 308.492C39.036 309.425 39.474 310.707 39.4985 312.055C39.523 313.404 39.132 314.711 38.4112 315.688C37.6904 316.666 36.6987 317.234 35.6536 317.27C34.9778 317.297 34.309 317.086 33.7193 316.659Z" fill="#2F2E41"/>
<path d="M7.78424 304.513C8.28039 308.174 13.8586 310.748 20.566 310.3C26.7339 309.934 31.7772 307.139 32.7011 303.826C32.3592 303.696 32.0036 303.634 31.6471 303.645L8.35869 304.421C8.16551 304.43 7.9733 304.461 7.78424 304.513Z" fill="#3F3D56"/>
<path d="M21.7954 332.728C21.826 332.718 21.8552 332.701 21.8816 332.679L25.1695 329.902C25.2092 329.868 25.2419 329.823 25.2645 329.769C25.2871 329.715 25.2989 329.655 25.2989 329.594C25.299 329.532 25.2872 329.472 25.2646 329.418C25.242 329.364 25.2094 329.319 25.1696 329.285L21.7523 326.397C21.7209 326.37 21.6857 326.351 21.6488 326.342C21.6119 326.333 21.5739 326.333 21.5371 326.343C21.5003 326.353 21.4653 326.372 21.4342 326.399C21.4031 326.426 21.3764 326.461 21.3558 326.502C21.3352 326.543 21.321 326.588 21.314 326.636C21.3071 326.683 21.3075 326.732 21.3152 326.78C21.3229 326.827 21.3379 326.872 21.3591 326.912C21.3804 326.952 21.4076 326.987 21.4391 327.013L24.4914 329.593L21.5688 332.062C21.5122 332.11 21.4706 332.182 21.4513 332.266C21.432 332.349 21.4364 332.439 21.4636 332.519C21.4907 332.599 21.539 332.664 21.5997 332.702C21.6605 332.74 21.7298 332.749 21.7954 332.728Z" fill="#61DCFB"/>
<path d="M16.6024 333.037C16.6575 333.019 16.7073 332.98 16.7452 332.926C16.7832 332.871 16.8076 332.803 16.8153 332.73C16.8231 332.657 16.8138 332.583 16.7887 332.517C16.7636 332.451 16.7238 332.396 16.6744 332.36L13.6438 330.118L16.573 327.31C16.6031 327.281 16.6285 327.245 16.6477 327.203C16.667 327.162 16.6797 327.116 16.6852 327.068C16.6906 327.02 16.6887 326.971 16.6796 326.924C16.6705 326.877 16.6542 326.833 16.6319 326.794C16.6095 326.755 16.5814 326.723 16.5493 326.698C16.5171 326.673 16.4814 326.656 16.4443 326.649C16.4072 326.642 16.3694 326.645 16.333 326.657C16.2967 326.668 16.2625 326.689 16.2324 326.718L12.9528 329.862C12.9147 329.898 12.8843 329.946 12.8642 330.002C12.8441 330.057 12.835 330.118 12.8378 330.18C12.8406 330.241 12.8552 330.3 12.8802 330.352C12.9051 330.404 12.9398 330.447 12.9809 330.478L16.39 333C16.4543 333.047 16.5305 333.061 16.6024 333.037Z" fill="#61DCFB"/>
<path d="M21.4683 335.162C21.496 335.153 21.5224 335.139 21.5466 335.119C21.5787 335.094 21.6066 335.061 21.6288 335.022C21.651 334.983 21.667 334.938 21.6759 334.891C21.6848 334.844 21.6864 334.795 21.6806 334.748C21.6749 334.7 21.6618 334.654 21.6423 334.612L16.9816 324.724C16.942 324.641 16.8784 324.581 16.8049 324.558C16.7314 324.536 16.6539 324.551 16.5894 324.602C16.5248 324.653 16.4784 324.735 16.4604 324.829C16.4424 324.924 16.4542 325.024 16.4933 325.108L21.154 334.996C21.1858 335.064 21.2335 335.116 21.2901 335.146C21.3466 335.176 21.4091 335.181 21.4683 335.162Z" fill="#61DCFB"/>
<path d="M448.702 403.441C448.354 403.67 448 403.899 447.651 404.12C438.621 409.946 431.398 413.257 421.517 416.886C420.682 404.865 419.877 383.735 419.094 370.637C418.888 367.237 418.682 364.383 418.482 362.37C418.432 361.299 418.262 360.244 417.979 359.236L418.014 362.37L418.099 370.637L418.597 417.918C406.305 422.115 393.679 424.464 380.97 424.917C380.307 424.939 379.655 424.954 379.027 424.969C378.804 424.976 378.587 424.984 378.37 424.984C377.655 424.991 376.947 424.998 376.232 424.998C362.839 425.011 349.494 422.923 336.491 418.781C336.771 406.885 337.051 385.992 337.32 370.637C337.377 367.636 337.428 364.841 337.485 362.37C337.594 357.089 337.708 353.284 337.817 352.008C337.721 352.234 337.646 352.474 337.594 352.723C337.065 355.904 336.704 359.127 336.514 362.37C336.314 364.841 336.114 367.636 335.914 370.637C334.851 386.589 333.742 408.279 332.599 417.476C325.796 415.079 319.12 412.115 312.614 408.604C309.185 406.76 305.817 404.771 302.51 402.637C303.139 397.327 303.796 391.376 304.471 385.203C304.996 380.417 305.539 375.497 306.094 370.637C306.951 363.13 336.074 282.056 342.937 279.217L343.109 279.158L343.229 279.224L354.916 274.593L356.624 273.914L357.773 273.457L361.819 269.482L364.02 267.321L366.083 265.293L370.117 261.333L395.097 263.317L399.96 278.428L410.853 283.568L411.041 283.458L411.207 283.369L411.379 283.428C418.24 286.267 424.144 292.046 428.112 299.808C428.649 300.848 429.3 302.22 430.038 303.879C430.666 305.288 431.352 306.895 432.095 308.673C433.152 311.202 434.307 314.056 435.53 317.147C435.798 317.825 436.073 318.518 436.347 319.219C436.856 320.517 437.372 321.842 437.896 323.194C439.113 326.328 440.37 329.603 441.627 332.929C442.719 335.813 443.822 341.742 444.908 349.287C445.805 355.555 446.697 362.945 447.559 370.637C448.691 380.608 447.485 392.548 448.508 401.723C448.571 402.306 448.64 402.873 448.702 403.441Z" fill="#3F3D56"/>
<path d="M375.441 255.908C391.486 255.908 404.493 239.122 404.493 218.416C404.493 197.71 391.486 180.924 375.441 180.924C359.396 180.924 346.388 197.71 346.388 218.416C346.388 239.122 359.396 255.908 375.441 255.908Z" fill="#FFB6B6"/>
<path opacity="0.2" d="M328.982 349.254L333.837 325.07L338.125 345.938L328.982 349.254Z" fill="black"/>
<path d="M458.2 333.497C456.463 364.383 458.263 377.983 448.674 403.449C439.949 408.96 430.86 413.457 421.517 416.886C420.545 417.24 419.572 417.584 418.596 417.918C406.305 422.115 393.679 424.464 380.97 424.917C380.307 424.939 379.655 424.954 379.027 424.969C378.804 424.976 378.587 424.984 378.369 424.984C377.655 424.991 376.946 424.998 376.232 424.998C362.839 425.011 349.494 422.923 336.491 418.781C335.188 418.368 333.891 417.933 332.599 417.476C325.796 415.079 319.12 412.115 312.614 408.604C309.185 406.76 305.817 404.771 302.51 402.637C301.762 402.151 301.013 401.664 300.276 401.162C296.487 392.563 294.332 382.105 294.287 369.538C296.91 347.886 452.406 314.823 458.2 333.497Z" fill="#536DFE"/>
<path opacity="0.2" d="M458.196 338.786C458.285 336.874 458.384 334.899 458.5 332.842C452.705 314.169 297.209 347.231 294.586 368.884C294.593 370.869 294.659 372.796 294.769 374.676C301.122 353.305 448.845 321.882 458.196 338.786Z" fill="black"/>
<path d="M290.42 334.954L303.183 326.718L292.547 289.658L289.744 270.969C289.38 268.54 288.528 266.278 287.274 264.408C286.02 262.537 284.408 261.125 282.598 260.31C280.788 259.496 278.845 259.309 276.962 259.768C275.078 260.226 273.321 261.315 271.866 262.924C269.71 265.31 268.356 268.683 268.09 272.331C267.825 275.98 268.668 279.62 270.442 282.482L280.847 299.266L290.42 334.954Z" fill="#FFB6B6"/>
<path d="M303.183 319.855L286.165 330.836L299.08 383.057C300.007 386.807 301.67 390.185 303.906 392.861C306.143 395.538 308.877 397.424 311.844 398.336C315.503 399.46 319.345 399.051 322.811 397.169C326.278 395.286 329.19 392.028 331.125 387.865L365.371 312.114C367.798 306.894 368.547 300.657 367.459 294.734C366.37 288.811 363.53 283.672 359.545 280.415C357.401 278.663 354.996 277.514 352.486 277.041C349.975 276.568 347.416 276.782 344.974 277.67C342.532 278.558 340.263 280.1 338.313 282.195C336.364 284.29 334.778 286.891 333.658 289.829L312.756 347.307L303.183 319.855Z" fill="#3F3D56"/>
<path d="M119.731 253.321C137.385 253.321 151.697 234.852 151.697 212.069C151.697 189.286 137.385 170.817 119.731 170.817C102.076 170.817 87.7647 189.286 87.7647 212.069C87.7647 234.852 102.076 253.321 119.731 253.321Z" fill="#A0616A"/>
<path d="M88.1486 183.642C90.7477 179.121 94.4834 175.907 97.3408 171.654C98.9087 169.32 100.21 166.676 101.973 164.587C105.248 160.705 109.828 159.115 114.272 158.917C119.142 158.755 123.973 160.076 128.374 162.771C132.776 165.467 136.624 169.462 139.606 174.433C141.929 172.675 144.252 170.918 146.575 169.16C147.492 172.277 148.41 175.394 149.328 178.511C150.081 177.666 151.042 177.193 152.039 177.175C153.037 177.157 154.008 177.595 154.779 178.412C155.55 179.23 156.072 180.373 156.253 181.639C156.433 182.906 156.26 184.214 155.765 185.332C156.318 183.127 158.85 182.66 160.247 184.116C161.643 185.572 162.017 188.163 161.789 190.461C161.503 192.983 160.64 195.336 159.309 197.219C157.979 199.101 156.242 200.428 154.323 201.027C151.292 201.898 147.764 200.983 145.338 203.484C143.393 205.49 142.805 209.142 140.82 211.082C138.374 213.471 134.917 212.366 131.877 212.894C126.557 213.818 122.345 220.839 122.985 227.717C122.503 225.547 121.998 223.314 120.905 221.551C119.813 219.788 117.973 218.596 116.298 219.244C113.528 220.315 113.075 225.187 113.747 228.815C115.527 238.44 122.273 253.997 122.273 253.997C113.513 258.456 103.077 254.239 96.3186 245.778C89.56 237.317 86.04 225.335 84.5067 213.346C83.2065 203.179 83.3907 191.917 88.1486 183.642Z" fill="#2F2E41"/>
<path d="M411.849 239.084C417.93 221.09 414.485 204.532 407.071 195.749V195.741C404.157 187.312 400.282 180.807 395.847 179.28C393.704 177.503 391.624 175.416 389.315 174.354C388.24 173.834 387.094 173.601 385.947 173.668C384.8 173.735 383.675 174.101 382.64 174.745L381.463 174.339C380.463 171.042 379.291 170.976 377.988 173.144C372.971 170.128 368.45 168.778 364.427 168.778C351.306 168.778 343.545 183.115 341.487 200.446L352.454 204.215L356.266 196.375L354.506 204.923L360.558 206.995C369.77 222.475 358.746 258.185 344.773 278.053C348.1 276.866 351.412 275.863 354.712 275.044L366.701 252.359L359.272 273.009C363.13 272.279 368.05 272.979 373.428 274.388C375.239 271.335 376.194 267.264 375.257 263.635C376.789 267.462 377.846 271.576 378.388 275.826C389.738 279.403 405.22 281.239 413.563 282.596C420.305 279.757 420.323 247.683 411.849 239.084Z" fill="#2F2E41"/>
<path d="M415.805 177.878C420.26 190.749 411.272 196.286 403.038 196.13C395.597 195.988 389.274 189.243 388.894 179.653C388.712 175.048 389.955 170.537 392.349 167.114C394.743 163.692 398.093 161.636 401.662 161.401C409.093 160.911 412.771 169.11 415.805 177.878Z" fill="#2F2E41"/>
<path d="M209.154 387.415L201.816 371.621L226.214 347.734L236.358 333.913C237.676 332.118 239.335 330.8 241.172 330.091C243.008 329.383 244.956 329.309 246.821 329.876C248.687 330.444 250.404 331.634 251.801 333.326C253.199 335.018 254.228 337.154 254.785 339.521C255.611 343.027 255.349 346.811 254.054 350.073C252.76 353.335 250.534 355.82 247.846 357.004L232.083 363.949L209.154 387.415Z" fill="#A0616A"/>
<path d="M214.457 386.893L203.033 399.18L199.953 402.492L199.593 402.875C198.799 403.384 197.998 403.885 197.193 404.38C194.781 405.862 192.339 407.271 189.866 408.605C183.36 412.117 176.685 415.081 169.881 417.478C168.59 417.935 167.293 418.37 165.989 418.783C165.195 419.034 164.395 419.284 163.595 419.52C163.092 419.675 162.583 419.823 162.075 419.963C161.458 420.14 160.84 420.317 160.223 420.479C159.577 420.656 158.932 420.826 158.286 420.988C156.548 418.854 155.165 416.287 154.22 413.442C153.275 410.597 152.788 407.534 152.788 404.439C152.788 404.239 152.788 404.033 152.794 403.826L154.628 343.108L155.44 316.197C155.565 310.111 157.529 304.33 160.913 300.088C164.297 295.846 168.833 293.481 173.55 293.497C174.099 293.497 174.642 293.533 175.179 293.6C175.568 294.249 175.928 294.92 176.276 295.598C177.225 297.413 178.505 300.282 180.014 303.881C180.637 305.363 181.294 306.971 181.985 308.674C182.403 309.699 186.003 324.199 189.506 339.008L187.963 354.473L185.174 382.35L196.616 372.66L204.673 365.831L205.628 367.888L208.114 373.242L212.914 383.567L214.457 386.893Z" fill="#3F3D56"/>
<path d="M208.194 369.54C208.188 370.794 208.165 372.026 208.114 373.242C207.995 376.599 207.693 379.941 207.211 383.243C206.422 388.788 205.015 394.156 203.033 399.18C202.77 399.851 202.49 400.515 202.205 401.164C201.467 401.666 200.719 402.152 199.97 402.639C199.844 402.72 199.719 402.801 199.593 402.875C196.41 404.918 193.167 406.828 189.866 408.605C183.36 412.117 176.685 415.081 169.881 417.478C168.59 417.935 167.292 418.37 165.989 418.783C163.446 419.594 160.878 420.329 158.286 420.988C147.733 423.663 137.003 425.007 126.248 425C125.534 425 124.825 424.993 124.111 424.985C123.894 424.985 123.677 424.978 123.454 424.971C122.825 424.956 122.174 424.941 121.511 424.919C108.801 424.465 96.1752 422.117 83.8839 417.92C82.9067 417.588 81.9333 417.244 80.9637 416.888C71.62 413.458 62.5317 408.961 53.8066 403.45C44.217 377.984 46.0172 364.385 44.2799 333.499C47.846 322.001 108.178 330.121 154.628 343.108C167.235 346.633 178.814 350.52 187.963 354.473C197.416 358.551 204.268 362.696 206.954 366.59C207.581 367.396 208.012 368.422 208.194 369.54Z" fill="#536DFE"/>
<path opacity="0.2" d="M44.2833 338.786C44.1946 336.874 44.0954 334.899 43.9797 332.842C49.7746 314.169 205.27 347.231 207.894 368.884C207.886 370.869 207.821 372.796 207.71 374.676C201.358 353.305 53.6344 321.882 44.2833 338.786Z" fill="black"/>
</g>
<defs>
<clipPath id="clip0_3406_4">
<rect width="503" height="425" fill="white"/>
</clipPath>
</defs>
</svg>
